<svg width="43" height="42" viewBox="0 0 43 42" fill="none" xmlns="http://www.w3.org/2000/svg">
<g clip-path="url(#clip0_4_66)">
<path d="M33.0982 0H9.90179C4.43318 0 0 4.41659 0 9.86473V32.1353C0 37.5834 4.43318 42 9.90179 42H33.0982C38.5668 42 43 37.5834 43 32.1353V9.86473C43 4.41659 38.5668 0 33.0982 0Z" fill="#F6B7BC"/>
<path opacity="0.6" d="M31.2454 34.6164H11.7546C11.6416 34.6158 11.5334 34.5705 11.4538 34.4906C11.415 34.45 11.3848 34.402 11.3652 34.3495C11.3455 34.2969 11.3368 34.2409 11.3395 34.1849L12.266 14.7611C12.2721 14.6557 12.3185 14.5565 12.3957 14.4841C12.4729 14.4117 12.575 14.3714 12.681 14.3716H30.319C30.425 14.3714 30.5271 14.4117 30.6043 14.4841C30.6815 14.5565 30.7279 14.6557 30.7341 14.7611L31.6605 34.161C31.6632 34.217 31.6545 34.2729 31.6348 34.3255C31.6152 34.378 31.585 34.4261 31.5462 34.4666C31.5088 34.5106 31.4629 34.5465 31.4112 34.5723C31.3595 34.598 31.3031 34.613 31.2454 34.6164Z" fill="white"/>
<path d="M31.2454 34.5086H11.7546C11.6985 34.5096 11.6427 34.499 11.5909 34.4773C11.5391 34.4556 11.4924 34.4234 11.4538 34.3827C11.415 34.3421 11.3848 34.2941 11.3652 34.2416C11.3455 34.189 11.3368 34.1331 11.3395 34.0771L12.266 14.6593C12.2706 14.5527 12.3164 14.4521 12.3937 14.3784C12.4711 14.3047 12.574 14.2636 12.681 14.2637H30.319C30.426 14.2636 30.5289 14.3047 30.6063 14.3784C30.6836 14.4521 30.7294 14.5527 30.7341 14.6593L31.6605 34.0771C31.6632 34.1331 31.6545 34.189 31.6348 34.2416C31.6152 34.2941 31.585 34.3421 31.5462 34.3827C31.5076 34.4234 31.4609 34.4556 31.4091 34.4773C31.3573 34.499 31.3016 34.5096 31.2454 34.5086ZM12.1878 33.6875H30.8363L29.952 15.1087H13.1082L12.1878 33.6875Z" fill="white"/>
<path d="M25.9576 16.7329C25.8486 16.7313 25.7446 16.6871 25.668 16.6097C25.5915 16.5323 25.5486 16.428 25.5486 16.3194V12.238C25.5486 11.1683 25.122 10.1424 24.3628 9.38599C23.6035 8.62958 22.5738 8.20464 21.5 8.20464C20.4263 8.20464 19.3965 8.62958 18.6373 9.38599C17.878 10.1424 17.4515 11.1683 17.4515 12.238V16.3194C17.4585 16.3774 17.4531 16.4363 17.4357 16.4922C17.4182 16.548 17.389 16.5996 17.3501 16.6433C17.3111 16.6871 17.2633 16.7222 17.2097 16.7462C17.1562 16.7702 17.0981 16.7826 17.0394 16.7826C16.9807 16.7826 16.9226 16.7702 16.8691 16.7462C16.8155 16.7222 16.7677 16.6871 16.7288 16.6433C16.6898 16.5996 16.6606 16.548 16.6432 16.4922C16.6257 16.4363 16.6203 16.3774 16.6273 16.3194V12.238C16.6273 10.9505 17.1407 9.7158 18.0545 8.80541C18.9683 7.89503 20.2077 7.38358 21.5 7.38358C22.7923 7.38358 24.0317 7.89503 24.9455 8.80541C25.8593 9.7158 26.3727 10.9505 26.3727 12.238V16.3194C26.3727 16.429 26.329 16.5342 26.2511 16.6118C26.1733 16.6893 26.0677 16.7329 25.9576 16.7329Z" fill="white"/>
</g>
<defs>
<clipPath id="clip0_4_66">
<rect width="43" height="42" fill="white"/>
</clipPath>
</defs>
</svg>
